<svg xmlns="http://www.w3.org/2000/svg" width="1600" height="675" viewBox="0 0 1600 675"><defs><linearGradient id="bg" x1="0" y1="0" x2="1" y2="1"><stop stop-color="#070b0d"/><stop offset=".58" stop-color="#0a1118"/><stop offset="1" stop-color="#15120b"/></linearGradient><pattern id="grid" width="44" height="44" patternUnits="userSpaceOnUse"><path d="M44 0H0V44" fill="none" stroke="#19252d"/></pattern></defs><rect width="1600" height="675" rx="28" fill="url(#bg)"/><rect width="1600" height="675" rx="28" fill="url(#grid)" opacity=".25"/><rect x="1" y="1" width="1598" height="673" rx="27" fill="none" stroke="#31404d"/><text x="36" y="44" fill="#f2c037" font-family="monospace" font-size="15">› actual_surfaces</text><text x="260" y="44" fill="#8e9ba7" font-family="Arial" font-size="12">A full editor/toolkit rather than one save-file form.</text>
<g transform="translate(34 70)"><rect width="1110" height="565" rx="18" fill="#0a141b" stroke="#344653"/><rect width="1110" height="46" rx="18" fill="#111b22"/><text x="20" y="29" fill="#f4f5f7" font-family="Arial" font-size="15" font-weight="700">S.T.A.L.K.E.R. Save Editor</text><rect x="14" y="62" width="175" height="485" rx="12" fill="#0b151c" stroke="#263b48"/><text x="34" y="94" fill="#f2c037" font-family="Arial" font-size="10.5">Library</text><text x="34" y="128" fill="#8b99a4" font-family="Arial" font-size="10.5">Overview</text><text x="34" y="162" fill="#8b99a4" font-family="Arial" font-size="10.5">Inventory</text><text x="34" y="196" fill="#8b99a4" font-family="Arial" font-size="10.5">Stashes</text><text x="34" y="230" fill="#8b99a4" font-family="Arial" font-size="10.5">Steam</text><text x="34" y="264" fill="#8b99a4" font-family="Arial" font-size="10.5">Timeline</text><text x="34" y="298" fill="#8b99a4" font-family="Arial" font-size="10.5">Doctor</text><text x="34" y="332" fill="#8b99a4" font-family="Arial" font-size="10.5">Game Fixes</text><text x="34" y="366" fill="#8b99a4" font-family="Arial" font-size="10.5">Companion</text><text x="34" y="400" fill="#8b99a4" font-family="Arial" font-size="10.5">Toolkit</text><g transform="translate(210 78)"><rect width="190" height="90" rx="15" fill="#0b1219" stroke="#31404d"/><rect width="4" height="90" rx="2" fill="#f2c037"/><text x="18" y="25" fill="#f2c037" font-family="monospace" font-size="9">SAVES</text><text x="18" y="51" fill="#f4f5f7" font-family="Arial" font-size="15" font-weight="700">discovered</text><text x="18" y="76" fill="#8e9ba7" font-family="Arial" font-size="10.5">Steam · Proton · GOG</text></g><g transform="translate(415 78)"><rect width="190" height="90" rx="15" fill="#0b1219" stroke="#31404d"/><rect width="4" height="90" rx="2" fill="#66df91"/><text x="18" y="25" fill="#66df91" font-family="monospace" font-size="9">WRITES</text><text x="18" y="51" fill="#f4f5f7" font-family="Arial" font-size="15" font-weight="700">gated</text><text x="18" y="76" fill="#8e9ba7" font-family="Arial" font-size="10.5">per-game capabilities</text></g><g transform="translate(620 78)"><rect width="190" height="90" rx="15" fill="#0b1219" stroke="#31404d"/><rect width="4" height="90" rx="2" fill="#4cc9ff"/><text x="18" y="25" fill="#4cc9ff" font-family="monospace" font-size="9">BACKUPS</text><text x="18" y="51" fill="#f4f5f7" font-family="Arial" font-size="15" font-weight="700">automatic</text><text x="18" y="76" fill="#8e9ba7" font-family="Arial" font-size="10.5">outside save folder</text></g><g transform="translate(825 78)"><rect width="250" height="90" rx="15" fill="#0b1219" stroke="#31404d"/><rect width="4" height="90" rx="2" fill="#f2c037"/><text x="18" y="25" fill="#f2c037" font-family="monospace" font-size="9">INTERFACE</text><text x="18" y="51" fill="#f4f5f7" font-family="Arial" font-size="15" font-weight="700">15 languages</text><text x="18" y="76" fill="#8e9ba7" font-family="Arial" font-size="10.5">diagnostics + audio</text></g>
<rect x="210" y="190" width="510" height="190" rx="12" fill="#0b151c" stroke="#263b48"/><text x="228" y="216" fill="#dce3e7" font-family="Arial" font-size="12" font-weight="700">Inventory &amp; stashes</text><text x="230" y="252" fill="#8b99a4" font-family="monospace" font-size="8.5">AK-74 · condition 86% · slot 2</text><text x="230" y="282" fill="#8b99a4" font-family="monospace" font-size="8.5">SEVA suit · upgrades 3 · backpack</text><text x="230" y="312" fill="#8b99a4" font-family="monospace" font-size="8.5">5.45×39 · stack 240</text><text x="230" y="342" fill="#8b99a4" font-family="monospace" font-size="8.5">artifact container · read / move / verify</text><rect x="740" y="190" width="335" height="190" rx="12" fill="#0b151c" stroke="#263b48"/><text x="758" y="216" fill="#dce3e7" font-family="Arial" font-size="12" font-weight="700">Diagnostics</text><text x="760" y="252" fill="#4cc9ff" font-family="monospace" font-size="8.5">Game Doctor</text><text x="860" y="252" fill="#87949e" font-family="monospace" font-size="8">install/build/mod ownership</text><text x="760" y="282" fill="#66df91" font-family="monospace" font-size="8.5">Save Doctor</text><text x="860" y="282" fill="#87949e" font-family="monospace" font-size="8">structural validation</text><text x="760" y="312" fill="#ff914d" font-family="monospace" font-size="8.5">Crash Analyzer</text><text x="860" y="312" fill="#87949e" font-family="monospace" font-size="8">X-Ray fatal/Lua signatures</text><text x="760" y="342" fill="#f2c037" font-family="monospace" font-size="8.5">Game Fixes</text><text x="860" y="342" fill="#87949e" font-family="monospace" font-size="8">source-tracked presets</text><rect x="210" y="402" width="865" height="112" rx="12" fill="#0b151c" stroke="#263b48"/><text x="228" y="430" fill="#dce3e7" font-family="Arial" font-size="12" font-weight="700">Same core, multiple surfaces</text><text x="230" y="461" fill="#f2c037" font-family="monospace" font-size="9">Desktop</text><text x="330" y="461" fill="#4cc9ff" font-family="monospace" font-size="9">Browser / WASM</text><text x="480" y="461" fill="#cbd3d8" font-family="monospace" font-size="9">CLI / NativeAOT</text><text x="635" y="461" fill="#66df91" font-family="monospace" font-size="9">In-game companion</text><text x="805" y="461" fill="#aeb9c0" font-family="monospace" font-size="9">Steam Cloud / achievements</text></g>
<g transform="translate(1170 70)"><g transform="translate(0 0)"><rect width="395" height="105" rx="15" fill="#0b1219" stroke="#31404d"/><rect width="4" height="105" rx="2" fill="#f2c037"/><text x="18" y="25" fill="#f2c037" font-family="monospace" font-size="9">LIBRARY</text><text x="18" y="51" fill="#f4f5f7" font-family="Arial" font-size="15" font-weight="700">All supported games</text><text x="18" y="76" fill="#8e9ba7" font-family="Arial" font-size="10.5">slot screenshots · metadata · arbitrary files</text></g><g transform="translate(0 120)"><rect width="395" height="105" rx="15" fill="#0b1219" stroke="#31404d"/><rect width="4" height="105" rx="2" fill="#66df91"/><text x="18" y="25" fill="#66df91" font-family="monospace" font-size="9">EDITOR</text><text x="18" y="51" fill="#f4f5f7" font-family="Arial" font-size="15" font-weight="700">Overview + inventory</text><text x="18" y="76" fill="#8e9ba7" font-family="Arial" font-size="10.5">money · health · rank · items · upgrades</text></g><g transform="translate(0 240)"><rect width="395" height="105" rx="15" fill="#0b1219" stroke="#31404d"/><rect width="4" height="105" rx="2" fill="#4cc9ff"/><text x="18" y="25" fill="#4cc9ff" font-family="monospace" font-size="9">STEAM</text><text x="18" y="51" fill="#f4f5f7" font-family="Arial" font-size="15" font-weight="700">Local/cloud boundary</text><text x="18" y="76" fill="#8e9ba7" font-family="Arial" font-size="10.5">compare · download · confirmed upload</text></g><g transform="translate(0 360)"><rect width="395" height="105" rx="15" fill="#0b1219" stroke="#31404d"/><rect width="4" height="105" rx="2" fill="#f2c037"/><text x="18" y="25" fill="#f2c037" font-family="monospace" font-size="9">COMPANION</text><text x="18" y="51" fill="#f4f5f7" font-family="Arial" font-size="15" font-weight="700">In-game tools</text><text x="18" y="76" fill="#8e9ba7" font-family="Arial" font-size="10.5">menu · teleport · weather · live actions</text></g><g transform="translate(0 480)"><rect width="395" height="105" rx="15" fill="#0b1219" stroke="#31404d"/><rect width="4" height="105" rx="2" fill="#ff914d"/><text x="18" y="25" fill="#ff914d" font-family="monospace" font-size="9">TOOLKIT</text><text x="18" y="51" fill="#f4f5f7" font-family="Arial" font-size="15" font-weight="700">Snapshots + profiles</text><text x="18" y="76" fill="#8e9ba7" font-family="Arial" font-size="10.5">config editor · install audit · rollback</text></g></g></svg>