<svg xmlns="http://www.w3.org/2000/svg" width="1600" height="220" viewBox="0 0 1600 220"><defs><linearGradient id="bg" x1="0" y1="0" x2="1" y2="1"><stop stop-color="#070b0d"/><stop offset=".58" stop-color="#0a1118"/><stop offset="1" stop-color="#15120b"/></linearGradient><pattern id="grid" width="44" height="44" patternUnits="userSpaceOnUse"><path d="M44 0H0V44" fill="none" stroke="#19252d"/></pattern></defs><rect width="1600" height="220" rx="28" fill="url(#bg)"/><rect width="1600" height="220" rx="28" fill="url(#grid)" opacity=".25"/><rect x="1" y="1" width="1598" height="218" rx="27" fill="none" stroke="#31404d"/><text x="36" y="44" fill="#f2c037" font-family="monospace" font-size="15">› verification</text><text x="260" y="44" fill="#8e9ba7" font-family="Arial" font-size="12">Evidence before writable capability.</text>
<g transform="translate(35 78)"><rect width="275" height="105" rx="15" fill="#0b1219" stroke="#31404d"/><rect width="4" height="105" rx="2" fill="#f2c037"/><text x="18" y="25" fill="#f2c037" font-family="monospace" font-size="9">L1</text><text x="18" y="51" fill="#f4f5f7" font-family="Arial" font-size="15" font-weight="700">Round-trip</text><text x="18" y="76" fill="#8e9ba7" font-family="Arial" font-size="10.5">serializer/parser + checksum tests</text></g><g transform="translate(325 78)"><rect width="275" height="105" rx="15" fill="#0b1219" stroke="#31404d"/><rect width="4" height="105" rx="2" fill="#4cc9ff"/><text x="18" y="25" fill="#4cc9ff" font-family="monospace" font-size="9">L2</text><text x="18" y="51" fill="#f4f5f7" font-family="Arial" font-size="15" font-weight="700">Headless / unit</text><text x="18" y="76" fill="#8e9ba7" font-family="Arial" font-size="10.5">ViewModels · Lua · i18n</text></g><g transform="translate(615 78)"><rect width="275" height="105" rx="15" fill="#0b1219" stroke="#31404d"/><rect width="4" height="105" rx="2" fill="#f2c037"/><text x="18" y="25" fill="#f2c037" font-family="monospace" font-size="9">L3</text><text x="18" y="51" fill="#f4f5f7" font-family="Arial" font-size="15" font-weight="700">Package runtime</text><text x="18" y="76" fill="#8e9ba7" font-family="Arial" font-size="10.5">compiled/native bundle validation</text></g><g transform="translate(905 78)"><rect width="275" height="105" rx="15" fill="#0b1219" stroke="#31404d"/><rect width="4" height="105" rx="2" fill="#66df91"/><text x="18" y="25" fill="#66df91" font-family="monospace" font-size="9">L4</text><text x="18" y="51" fill="#f4f5f7" font-family="Arial" font-size="15" font-weight="700">Game accepted</text><text x="18" y="76" fill="#8e9ba7" font-family="Arial" font-size="10.5">retail build accepts output</text></g><g transform="translate(1195 78)"><rect width="370" height="105" rx="15" fill="#0b1219" stroke="#31404d"/><rect width="4" height="105" rx="2" fill="#66df91"/><text x="18" y="25" fill="#66df91" font-family="monospace" font-size="9">L5</text><text x="18" y="51" fill="#f4f5f7" font-family="Arial" font-size="15" font-weight="700">End-to-end retail</text><text x="18" y="76" fill="#8e9ba7" font-family="Arial" font-size="10.5">Steam Cloud + retail game verification</text></g></svg>