<svg xmlns="http://www.w3.org/2000/svg" width="1600" height="3665" viewBox="0 0 1600 3665">
<rect width="1600" height="3665" fill="#05090d"/>
<svg x="0" y="0" width="1600" height="560" viewBox="0 0 1600 560" preserveAspectRatio="xMidYMid meet"><defs><linearGradient id="bg" x1="0" y1="0" x2="1" y2="1"><stop stop-color="#070b0d"/><stop offset=".58" stop-color="#0a1118"/><stop offset="1" stop-color="#15120b"/></linearGradient><pattern id="grid" width="44" height="44" patternUnits="userSpaceOnUse"><path d="M44 0H0V44" fill="none" stroke="#19252d"/></pattern></defs><rect width="1600" height="560" rx="28" fill="url(#bg)"/><rect width="1600" height="560" rx="28" fill="url(#grid)" opacity=".25"/><rect x="1" y="1" width="1598" height="558" rx="27" fill="none" stroke="#31404d"/><text x="44" y="50" fill="#f2c037" font-family="monospace" font-size="15">› S.T.A.L.K.E.R.-Save-Editor / showcase</text><text x="44" y="112" fill="#f2c037" font-family="Arial" font-size="31" font-weight="800">S.T.A.L.K.E.R.</text><text x="44" y="174" fill="#f4f5f7" font-family="Arial" font-size="66" font-weight="800">Save Editor</text><text x="44" y="214" fill="#b8c3cc" font-family="Arial" font-size="21">One C# core for seven save formats.</text><text x="44" y="248" fill="#8e9ba7" font-family="Arial" font-size="17">Desktop · browser · CLI · Steam boundary · in-game companion · doctors · guarded game fixes.</text><rect x="44" y="284" width="830" height="102" rx="15" fill="#0b1219" stroke="#31404d"/><text x="65" y="314" fill="#f2c037" font-family="monospace" font-size="10">EDITING RULE</text><text x="65" y="350" fill="#f4f5f7" font-family="Arial" font-size="28" font-weight="800">If a structure cannot be rewritten safely, it stays read-only.</text><text x="65" y="374" fill="#8e9ba7" font-family="Arial" font-size="11">Capability gates, backups, fresh hashes and post-write verification protect every writable path.</text><g transform="translate(44 420)"><rect width="160" height="38" rx="8" fill="#0b151c" stroke="#31404d"/><text x="80" y="24" text-anchor="middle" fill="#f2c037" font-family="monospace" font-size="10">C# / .NET 10</text></g><g transform="translate(218 420)"><rect width="160" height="38" rx="8" fill="#0b151c" stroke="#31404d"/><text x="80" y="24" text-anchor="middle" fill="#f4f5f7" font-family="monospace" font-size="10">Avalonia 11</text></g><g transform="translate(392 420)"><rect width="160" height="38" rx="8" fill="#0b151c" stroke="#31404d"/><text x="80" y="24" text-anchor="middle" fill="#4cc9ff" font-family="monospace" font-size="10">WASM</text></g><g transform="translate(566 420)"><rect width="160" height="38" rx="8" fill="#0b151c" stroke="#31404d"/><text x="80" y="24" text-anchor="middle" fill="#f4f5f7" font-family="monospace" font-size="10">NativeAOT</text></g><g transform="translate(740 420)"><rect width="160" height="38" rx="8" fill="#0b151c" stroke="#31404d"/><text x="80" y="24" text-anchor="middle" fill="#f4f5f7" font-family="monospace" font-size="10">Lua 5.1</text></g><g transform="translate(914 420)"><rect width="160" height="38" rx="8" fill="#0b151c" stroke="#31404d"/><text x="80" y="24" text-anchor="middle" fill="#f4f5f7" font-family="monospace" font-size="10">Win · Linux · macOS</text></g>
<g transform="translate(1040 58)"><rect width="510" height="430" rx="20" fill="#09131a" stroke="#31404d"/><text x="24" y="34" fill="#8e9ba7" font-family="monospace" font-size="10">ZONE TOOLKIT</text><rect x="28" y="72" width="215" height="90" rx="12" fill="#0c1821" stroke="#374754"/><text x="46" y="96" fill="#788894" font-family="monospace" font-size="8">SAVE FORMATS</text><text x="46" y="138" fill="#f2c037" font-family="Arial" font-size="30" font-weight="800">7</text><rect x="266" y="72" width="215" height="90" rx="12" fill="#0c1821" stroke="#374754"/><text x="284" y="96" fill="#788894" font-family="monospace" font-size="8">SURFACES</text><text x="284" y="138" fill="#4cc9ff" font-family="Arial" font-size="25" font-weight="800">DESKTOP + WEB</text><path d="M45 310 C110 260 175 300 240 236 S360 246 470 168" fill="none" stroke="#f2c037" stroke-width="4"/><path d="M45 336 C150 310 230 344 320 294 S418 302 470 278" fill="none" stroke="#4cc9ff" stroke-width="3"/><rect x="34" y="362" width="430" height="38" rx="10" fill="#0d1b23" stroke="#31404d"/><text x="249" y="386" text-anchor="middle" fill="#c3ccd2" font-family="monospace" font-size="9">read → detect → plan → backup → write → verify</text></g></svg>
<svg x="0" y="574" width="1600" height="360" viewBox="0 0 1600 360" preserveAspectRatio="xMidYMid meet"><defs><linearGradient id="bg" x1="0" y1="0" x2="1" y2="1"><stop stop-color="#070b0d"/><stop offset=".58" stop-color="#0a1118"/><stop offset="1" stop-color="#15120b"/></linearGradient><pattern id="grid" width="44" height="44" patternUnits="userSpaceOnUse"><path d="M44 0H0V44" fill="none" stroke="#19252d"/></pattern></defs><rect width="1600" height="360" rx="28" fill="url(#bg)"/><rect width="1600" height="360" rx="28" fill="url(#grid)" opacity=".25"/><rect x="1" y="1" width="1598" height="358" rx="27" fill="none" stroke="#31404d"/><text x="36" y="44" fill="#f2c037" font-family="monospace" font-size="15">› supported_zone</text><text x="260" y="44" fill="#8e9ba7" font-family="Arial" font-size="12">Five games, seven save formats, one core.</text>
<g transform="translate(35 88)"><rect width="300" height="160" rx="15" fill="#0b1219" stroke="#31404d"/><rect width="4" height="160" rx="2" fill="#f2c037"/><text x="18" y="25" fill="#f2c037" font-family="monospace" font-size="9">SHADOW OF CHERNOBYL</text><text x="18" y="51" fill="#f4f5f7" font-family="Arial" font-size="15" font-weight="700">1.0004 / 1.0006</text><text x="18" y="76" fill="#8e9ba7" font-family="Arial" font-size="10.5">read + verified writes · companion · fixes</text></g><g transform="translate(350 88)"><rect width="300" height="160" rx="15" fill="#0b1219" stroke="#31404d"/><rect width="4" height="160" rx="2" fill="#f2c037"/><text x="18" y="25" fill="#f2c037" font-family="monospace" font-size="9">CLEAR SKY</text><text x="18" y="51" fill="#f4f5f7" font-family="Arial" font-size="15" font-weight="700">1.5.10</text><text x="18" y="76" fill="#8e9ba7" font-family="Arial" font-size="10.5">read + verified writes · companion · fixes</text></g><g transform="translate(665 88)"><rect width="300" height="160" rx="15" fill="#0b1219" stroke="#31404d"/><rect width="4" height="160" rx="2" fill="#f2c037"/><text x="18" y="25" fill="#f2c037" font-family="monospace" font-size="9">CALL OF PRIPYAT</text><text x="18" y="51" fill="#f4f5f7" font-family="Arial" font-size="15" font-weight="700">1.6.02</text><text x="18" y="76" fill="#8e9ba7" font-family="Arial" font-size="10.5">read + verified writes · companion · fixes</text></g><g transform="translate(980 88)"><rect width="300" height="160" rx="15" fill="#0b1219" stroke="#31404d"/><rect width="4" height="160" rx="2" fill="#4cc9ff"/><text x="18" y="25" fill="#4cc9ff" font-family="monospace" font-size="9">ENHANCED EDITIONS</text><text x="18" y="51" fill="#f4f5f7" font-family="Arial" font-size="15" font-weight="700">SoC · CS · CoP</text><text x="18" y="76" fill="#8e9ba7" font-family="Arial" font-size="10.5">read · write capability-gated · guarded fixes</text></g><g transform="translate(1295 88)"><rect width="270" height="160" rx="15" fill="#0b1219" stroke="#31404d"/><rect width="4" height="160" rx="2" fill="#66df91"/><text x="18" y="25" fill="#66df91" font-family="monospace" font-size="9">S.T.A.L.K.E.R. 2</text><text x="18" y="51" fill="#f4f5f7" font-family="Arial" font-size="15" font-weight="700">Heart of Chornobyl</text><text x="18" y="76" fill="#8e9ba7" font-family="Arial" font-size="10.5">read · capability-gated writes · experimental companion</text></g><text x="40" y="300" fill="#8e9ba7" font-family="monospace" font-size="9">Detection is based on file content rather than path assumptions. Steam, Proton, GOG and classic installs can be discovered.</text></svg>
<svg x="0" y="948" width="1600" height="675" viewBox="0 0 1600 675" preserveAspectRatio="xMidYMid meet"><defs><linearGradient id="bg" x1="0" y1="0" x2="1" y2="1"><stop stop-color="#070b0d"/><stop offset=".58" stop-color="#0a1118"/><stop offset="1" stop-color="#15120b"/></linearGradient><pattern id="grid" width="44" height="44" patternUnits="userSpaceOnUse"><path d="M44 0H0V44" fill="none" stroke="#19252d"/></pattern></defs><rect width="1600" height="675" rx="28" fill="url(#bg)"/><rect width="1600" height="675" rx="28" fill="url(#grid)" opacity=".25"/><rect x="1" y="1" width="1598" height="673" rx="27" fill="none" stroke="#31404d"/><text x="36" y="44" fill="#f2c037" font-family="monospace" font-size="15">› actual_surfaces</text><text x="260" y="44" fill="#8e9ba7" font-family="Arial" font-size="12">A full editor/toolkit rather than one save-file form.</text>
<g transform="translate(34 70)"><rect width="1110" height="565" rx="18" fill="#0a141b" stroke="#344653"/><rect width="1110" height="46" rx="18" fill="#111b22"/><text x="20" y="29" fill="#f4f5f7" font-family="Arial" font-size="15" font-weight="700">S.T.A.L.K.E.R. Save Editor</text><rect x="14" y="62" width="175" height="485" rx="12" fill="#0b151c" stroke="#263b48"/><text x="34" y="94" fill="#f2c037" font-family="Arial" font-size="10.5">Library</text><text x="34" y="128" fill="#8b99a4" font-family="Arial" font-size="10.5">Overview</text><text x="34" y="162" fill="#8b99a4" font-family="Arial" font-size="10.5">Inventory</text><text x="34" y="196" fill="#8b99a4" font-family="Arial" font-size="10.5">Stashes</text><text x="34" y="230" fill="#8b99a4" font-family="Arial" font-size="10.5">Steam</text><text x="34" y="264" fill="#8b99a4" font-family="Arial" font-size="10.5">Timeline</text><text x="34" y="298" fill="#8b99a4" font-family="Arial" font-size="10.5">Doctor</text><text x="34" y="332" fill="#8b99a4" font-family="Arial" font-size="10.5">Game Fixes</text><text x="34" y="366" fill="#8b99a4" font-family="Arial" font-size="10.5">Companion</text><text x="34" y="400" fill="#8b99a4" font-family="Arial" font-size="10.5">Toolkit</text><g transform="translate(210 78)"><rect width="190" height="90" rx="15" fill="#0b1219" stroke="#31404d"/><rect width="4" height="90" rx="2" fill="#f2c037"/><text x="18" y="25" fill="#f2c037" font-family="monospace" font-size="9">SAVES</text><text x="18" y="51" fill="#f4f5f7" font-family="Arial" font-size="15" font-weight="700">discovered</text><text x="18" y="76" fill="#8e9ba7" font-family="Arial" font-size="10.5">Steam · Proton · GOG</text></g><g transform="translate(415 78)"><rect width="190" height="90" rx="15" fill="#0b1219" stroke="#31404d"/><rect width="4" height="90" rx="2" fill="#66df91"/><text x="18" y="25" fill="#66df91" font-family="monospace" font-size="9">WRITES</text><text x="18" y="51" fill="#f4f5f7" font-family="Arial" font-size="15" font-weight="700">gated</text><text x="18" y="76" fill="#8e9ba7" font-family="Arial" font-size="10.5">per-game capabilities</text></g><g transform="translate(620 78)"><rect width="190" height="90" rx="15" fill="#0b1219" stroke="#31404d"/><rect width="4" height="90" rx="2" fill="#4cc9ff"/><text x="18" y="25" fill="#4cc9ff" font-family="monospace" font-size="9">BACKUPS</text><text x="18" y="51" fill="#f4f5f7" font-family="Arial" font-size="15" font-weight="700">automatic</text><text x="18" y="76" fill="#8e9ba7" font-family="Arial" font-size="10.5">outside save folder</text></g><g transform="translate(825 78)"><rect width="250" height="90" rx="15" fill="#0b1219" stroke="#31404d"/><rect width="4" height="90" rx="2" fill="#f2c037"/><text x="18" y="25" fill="#f2c037" font-family="monospace" font-size="9">INTERFACE</text><text x="18" y="51" fill="#f4f5f7" font-family="Arial" font-size="15" font-weight="700">15 languages</text><text x="18" y="76" fill="#8e9ba7" font-family="Arial" font-size="10.5">diagnostics + audio</text></g>
<rect x="210" y="190" width="510" height="190" rx="12" fill="#0b151c" stroke="#263b48"/><text x="228" y="216" fill="#dce3e7" font-family="Arial" font-size="12" font-weight="700">Inventory &amp; stashes</text><text x="230" y="252" fill="#8b99a4" font-family="monospace" font-size="8.5">AK-74 · condition 86% · slot 2</text><text x="230" y="282" fill="#8b99a4" font-family="monospace" font-size="8.5">SEVA suit · upgrades 3 · backpack</text><text x="230" y="312" fill="#8b99a4" font-family="monospace" font-size="8.5">5.45×39 · stack 240</text><text x="230" y="342" fill="#8b99a4" font-family="monospace" font-size="8.5">artifact container · read / move / verify</text><rect x="740" y="190" width="335" height="190" rx="12" fill="#0b151c" stroke="#263b48"/><text x="758" y="216" fill="#dce3e7" font-family="Arial" font-size="12" font-weight="700">Diagnostics</text><text x="760" y="252" fill="#4cc9ff" font-family="monospace" font-size="8.5">Game Doctor</text><text x="860" y="252" fill="#87949e" font-family="monospace" font-size="8">install/build/mod ownership</text><text x="760" y="282" fill="#66df91" font-family="monospace" font-size="8.5">Save Doctor</text><text x="860" y="282" fill="#87949e" font-family="monospace" font-size="8">structural validation</text><text x="760" y="312" fill="#ff914d" font-family="monospace" font-size="8.5">Crash Analyzer</text><text x="860" y="312" fill="#87949e" font-family="monospace" font-size="8">X-Ray fatal/Lua signatures</text><text x="760" y="342" fill="#f2c037" font-family="monospace" font-size="8.5">Game Fixes</text><text x="860" y="342" fill="#87949e" font-family="monospace" font-size="8">source-tracked presets</text><rect x="210" y="402" width="865" height="112" rx="12" fill="#0b151c" stroke="#263b48"/><text x="228" y="430" fill="#dce3e7" font-family="Arial" font-size="12" font-weight="700">Same core, multiple surfaces</text><text x="230" y="461" fill="#f2c037" font-family="monospace" font-size="9">Desktop</text><text x="330" y="461" fill="#4cc9ff" font-family="monospace" font-size="9">Browser / WASM</text><text x="480" y="461" fill="#cbd3d8" font-family="monospace" font-size="9">CLI / NativeAOT</text><text x="635" y="461" fill="#66df91" font-family="monospace" font-size="9">In-game companion</text><text x="805" y="461" fill="#aeb9c0" font-family="monospace" font-size="9">Steam Cloud / achievements</text></g>
<g transform="translate(1170 70)"><g transform="translate(0 0)"><rect width="395" height="105" rx="15" fill="#0b1219" stroke="#31404d"/><rect width="4" height="105" rx="2" fill="#f2c037"/><text x="18" y="25" fill="#f2c037" font-family="monospace" font-size="9">LIBRARY</text><text x="18" y="51" fill="#f4f5f7" font-family="Arial" font-size="15" font-weight="700">All supported games</text><text x="18" y="76" fill="#8e9ba7" font-family="Arial" font-size="10.5">slot screenshots · metadata · arbitrary files</text></g><g transform="translate(0 120)"><rect width="395" height="105" rx="15" fill="#0b1219" stroke="#31404d"/><rect width="4" height="105" rx="2" fill="#66df91"/><text x="18" y="25" fill="#66df91" font-family="monospace" font-size="9">EDITOR</text><text x="18" y="51" fill="#f4f5f7" font-family="Arial" font-size="15" font-weight="700">Overview + inventory</text><text x="18" y="76" fill="#8e9ba7" font-family="Arial" font-size="10.5">money · health · rank · items · upgrades</text></g><g transform="translate(0 240)"><rect width="395" height="105" rx="15" fill="#0b1219" stroke="#31404d"/><rect width="4" height="105" rx="2" fill="#4cc9ff"/><text x="18" y="25" fill="#4cc9ff" font-family="monospace" font-size="9">STEAM</text><text x="18" y="51" fill="#f4f5f7" font-family="Arial" font-size="15" font-weight="700">Local/cloud boundary</text><text x="18" y="76" fill="#8e9ba7" font-family="Arial" font-size="10.5">compare · download · confirmed upload</text></g><g transform="translate(0 360)"><rect width="395" height="105" rx="15" fill="#0b1219" stroke="#31404d"/><rect width="4" height="105" rx="2" fill="#f2c037"/><text x="18" y="25" fill="#f2c037" font-family="monospace" font-size="9">COMPANION</text><text x="18" y="51" fill="#f4f5f7" font-family="Arial" font-size="15" font-weight="700">In-game tools</text><text x="18" y="76" fill="#8e9ba7" font-family="Arial" font-size="10.5">menu · teleport · weather · live actions</text></g><g transform="translate(0 480)"><rect width="395" height="105" rx="15" fill="#0b1219" stroke="#31404d"/><rect width="4" height="105" rx="2" fill="#ff914d"/><text x="18" y="25" fill="#ff914d" font-family="monospace" font-size="9">TOOLKIT</text><text x="18" y="51" fill="#f4f5f7" font-family="Arial" font-size="15" font-weight="700">Snapshots + profiles</text><text x="18" y="76" fill="#8e9ba7" font-family="Arial" font-size="10.5">config editor · install audit · rollback</text></g></g></svg>
<svg x="0" y="1637" width="1600" height="470" viewBox="0 0 1600 470" preserveAspectRatio="xMidYMid meet"><defs><linearGradient id="bg" x1="0" y1="0" x2="1" y2="1"><stop stop-color="#070b0d"/><stop offset=".58" stop-color="#0a1118"/><stop offset="1" stop-color="#15120b"/></linearGradient><pattern id="grid" width="44" height="44" patternUnits="userSpaceOnUse"><path d="M44 0H0V44" fill="none" stroke="#19252d"/></pattern></defs><rect width="1600" height="470" rx="28" fill="url(#bg)"/><rect width="1600" height="470" rx="28" fill="url(#grid)" opacity=".25"/><rect x="1" y="1" width="1598" height="468" rx="27" fill="none" stroke="#31404d"/><text x="36" y="44" fill="#f2c037" font-family="monospace" font-size="15">› product_surface</text><text x="260" y="44" fill="#8e9ba7" font-family="Arial" font-size="12">Tools for editing, diagnosis, recovery and in-game control.</text>
<g transform="translate(35 78)"><rect width="300" height="130" rx="15" fill="#0b1219" stroke="#31404d"/><rect width="4" height="130" rx="2" fill="#f2c037"/><text x="18" y="25" fill="#f2c037" font-family="monospace" font-size="9">SAVE LIBRARY</text><text x="18" y="51" fill="#f4f5f7" font-family="Arial" font-size="15" font-weight="700">Discovery + metadata</text><text x="18" y="76" fill="#8e9ba7" font-family="Arial" font-size="10.5">Steam · Proton · GOG · slot images</text></g><g transform="translate(350 78)"><rect width="300" height="130" rx="15" fill="#0b1219" stroke="#31404d"/><rect width="4" height="130" rx="2" fill="#4cc9ff"/><text x="18" y="25" fill="#4cc9ff" font-family="monospace" font-size="9">OVERVIEW</text><text x="18" y="51" fill="#f4f5f7" font-family="Arial" font-size="15" font-weight="700">Actor + world state</text><text x="18" y="76" fill="#8e9ba7" font-family="Arial" font-size="10.5">money · health · rank · reputation</text></g><g transform="translate(665 78)"><rect width="300" height="130" rx="15" fill="#0b1219" stroke="#31404d"/><rect width="4" height="130" rx="2" fill="#66df91"/><text x="18" y="25" fill="#66df91" font-family="monospace" font-size="9">INVENTORY</text><text x="18" y="51" fill="#f4f5f7" font-family="Arial" font-size="15" font-weight="700">Items + condition</text><text x="18" y="76" fill="#8e9ba7" font-family="Arial" font-size="10.5">placement · upgrades · add/remove</text></g><g transform="translate(980 78)"><rect width="300" height="130" rx="15" fill="#0b1219" stroke="#31404d"/><rect width="4" height="130" rx="2" fill="#9bb6d8"/><text x="18" y="25" fill="#9bb6d8" font-family="monospace" font-size="9">STEAM</text><text x="18" y="51" fill="#f4f5f7" font-family="Arial" font-size="15" font-weight="700">Cloud + achievements</text><text x="18" y="76" fill="#8e9ba7" font-family="Arial" font-size="10.5">explicit sync boundary</text></g><g transform="translate(1295 78)"><rect width="270" height="130" rx="15" fill="#0b1219" stroke="#31404d"/><rect width="4" height="130" rx="2" fill="#f2c037"/><text x="18" y="25" fill="#f2c037" font-family="monospace" font-size="9">TIMELINE</text><text x="18" y="51" fill="#f4f5f7" font-family="Arial" font-size="15" font-weight="700">Save history</text><text x="18" y="76" fill="#8e9ba7" font-family="Arial" font-size="10.5">real mtime + adjacent compare</text></g>
<g transform="translate(35 228)"><rect width="300" height="130" rx="15" fill="#0b1219" stroke="#31404d"/><rect width="4" height="130" rx="2" fill="#4cc9ff"/><text x="18" y="25" fill="#4cc9ff" font-family="monospace" font-size="9">GAME DOCTOR</text><text x="18" y="51" fill="#f4f5f7" font-family="Arial" font-size="15" font-weight="700">Install diagnostics</text><text x="18" y="76" fill="#8e9ba7" font-family="Arial" font-size="10.5">build ID · mods · ownership hashes</text></g><g transform="translate(350 228)"><rect width="300" height="130" rx="15" fill="#0b1219" stroke="#31404d"/><rect width="4" height="130" rx="2" fill="#66df91"/><text x="18" y="25" fill="#66df91" font-family="monospace" font-size="9">SAVE DOCTOR</text><text x="18" y="51" fill="#f4f5f7" font-family="Arial" font-size="15" font-weight="700">Structural checks</text><text x="18" y="76" fill="#8e9ba7" font-family="Arial" font-size="10.5">validated repairs only</text></g><g transform="translate(665 228)"><rect width="300" height="130" rx="15" fill="#0b1219" stroke="#31404d"/><rect width="4" height="130" rx="2" fill="#f2c037"/><text x="18" y="25" fill="#f2c037" font-family="monospace" font-size="9">GAME FIXES</text><text x="18" y="51" fill="#f4f5f7" font-family="Arial" font-size="15" font-weight="700">Guarded patch catalogue</text><text x="18" y="76" fill="#8e9ba7" font-family="Arial" font-size="10.5">target/build gates · presets · rollback</text></g><g transform="translate(980 228)"><rect width="300" height="130" rx="15" fill="#0b1219" stroke="#31404d"/><rect width="4" height="130" rx="2" fill="#ff914d"/><text x="18" y="25" fill="#ff914d" font-family="monospace" font-size="9">CRASH ANALYZER</text><text x="18" y="51" fill="#f4f5f7" font-family="Arial" font-size="15" font-weight="700">Log intelligence</text><text x="18" y="76" fill="#8e9ba7" font-family="Arial" font-size="10.5">fatal fields · Lua refs · engine signatures</text></g><g transform="translate(1295 228)"><rect width="270" height="130" rx="15" fill="#0b1219" stroke="#31404d"/><rect width="4" height="130" rx="2" fill="#66df91"/><text x="18" y="25" fill="#66df91" font-family="monospace" font-size="9">COMPANION</text><text x="18" y="51" fill="#f4f5f7" font-family="Arial" font-size="15" font-weight="700">Live game tools</text><text x="18" y="76" fill="#8e9ba7" font-family="Arial" font-size="10.5">trilogy + experimental S2</text></g></svg>
<svg x="0" y="2121" width="1600" height="455" viewBox="0 0 1600 455" preserveAspectRatio="xMidYMid meet"><defs><linearGradient id="bg" x1="0" y1="0" x2="1" y2="1"><stop stop-color="#070b0d"/><stop offset=".58" stop-color="#0a1118"/><stop offset="1" stop-color="#15120b"/></linearGradient><pattern id="grid" width="44" height="44" patternUnits="userSpaceOnUse"><path d="M44 0H0V44" fill="none" stroke="#19252d"/></pattern></defs><rect width="1600" height="455" rx="28" fill="url(#bg)"/><rect width="1600" height="455" rx="28" fill="url(#grid)" opacity=".25"/><rect x="1" y="1" width="1598" height="453" rx="27" fill="none" stroke="#31404d"/><text x="36" y="44" fill="#f2c037" font-family="monospace" font-size="15">› core_model</text><text x="260" y="44" fill="#8e9ba7" font-family="Arial" font-size="12">Format detection and capabilities decide what the UI is allowed to write.</text>
<g transform="translate(40 85)"><rect width="220" height="76" rx="13" fill="#0a151d" stroke="#f2c037" stroke-opacity=".65"/><text x="110" y="30" text-anchor="middle" fill="#f2c037" font-family="monospace" font-size="9">SOURCE SAVE</text><text x="110" y="54" text-anchor="middle" fill="#ccd4da" font-family="Arial" font-size="10.5">opaque bytes</text></g><g transform="translate(300 85)"><rect width="220" height="76" rx="13" fill="#0a151d" stroke="#4cc9ff" stroke-opacity=".65"/><text x="110" y="30" text-anchor="middle" fill="#4cc9ff" font-family="monospace" font-size="9">FORMAT REGISTRY</text><text x="110" y="54" text-anchor="middle" fill="#ccd4da" font-family="Arial" font-size="10.5">7 supported formats</text></g><g transform="translate(560 85)"><rect width="220" height="76" rx="13" fill="#0a151d" stroke="#66df91" stroke-opacity=".65"/><text x="110" y="30" text-anchor="middle" fill="#66df91" font-family="monospace" font-size="9">PARSER</text><text x="110" y="54" text-anchor="middle" fill="#ccd4da" font-family="Arial" font-size="10.5">known + opaque fields</text></g><g transform="translate(820 85)"><rect width="220" height="76" rx="13" fill="#0a151d" stroke="#f2c037" stroke-opacity=".65"/><text x="110" y="30" text-anchor="middle" fill="#f2c037" font-family="monospace" font-size="9">CAPABILITIES</text><text x="110" y="54" text-anchor="middle" fill="#ccd4da" font-family="Arial" font-size="10.5">read / write gates</text></g><g transform="translate(1080 85)"><rect width="220" height="76" rx="13" fill="#0a151d" stroke="#ff914d" stroke-opacity=".65"/><text x="110" y="30" text-anchor="middle" fill="#ff914d" font-family="monospace" font-size="9">EDIT PLAN</text><text x="110" y="54" text-anchor="middle" fill="#ccd4da" font-family="Arial" font-size="10.5">immutable change set</text></g><g transform="translate(1340 85)"><rect width="220" height="76" rx="13" fill="#0a151d" stroke="#66df91" stroke-opacity=".65"/><text x="110" y="30" text-anchor="middle" fill="#66df91" font-family="monospace" font-size="9">VERIFIER</text><text x="110" y="54" text-anchor="middle" fill="#ccd4da" font-family="Arial" font-size="10.5">round-trip checks</text></g><path d="M260 123H300 M520 123H560 M780 123H820 M1040 123H1080 M1300 123H1340" stroke="#51616b" stroke-width="2"/>
<g transform="translate(40 230)"><rect width="470" height="140" rx="15" fill="#0b1219" stroke="#31404d"/><rect width="4" height="140" rx="2" fill="#4cc9ff"/><text x="18" y="25" fill="#4cc9ff" font-family="monospace" font-size="9">UNKNOWN FIELDS</text><text x="18" y="51" fill="#f4f5f7" font-family="Arial" font-size="15" font-weight="700">Opaque or read-only</text><text x="18" y="76" fill="#8e9ba7" font-family="Arial" font-size="10.5">the editor preserves bytes it cannot prove it understands</text></g><g transform="translate(535 230)"><rect width="470" height="140" rx="15" fill="#0b1219" stroke="#31404d"/><rect width="4" height="140" rx="2" fill="#f2c037"/><text x="18" y="25" fill="#f2c037" font-family="monospace" font-size="9">WRITE ACCESS</text><text x="18" y="51" fill="#f4f5f7" font-family="Arial" font-size="15" font-weight="700">Evidence-gated</text><text x="18" y="76" fill="#8e9ba7" font-family="Arial" font-size="10.5">unsupported targets remain visible but non-writable</text></g><g transform="translate(1030 230)"><rect width="490" height="140" rx="15" fill="#0b1219" stroke="#31404d"/><rect width="4" height="140" rx="2" fill="#66df91"/><text x="18" y="25" fill="#66df91" font-family="monospace" font-size="9">SAME CORE</text><text x="18" y="51" fill="#f4f5f7" font-family="Arial" font-size="15" font-weight="700">Desktop · browser · CLI</text><text x="18" y="76" fill="#8e9ba7" font-family="Arial" font-size="10.5">UI and automation reuse the same format/editing logic</text></g></svg>
<svg x="0" y="2590" width="1600" height="335" viewBox="0 0 1600 335" preserveAspectRatio="xMidYMid meet"><defs><linearGradient id="bg" x1="0" y1="0" x2="1" y2="1"><stop stop-color="#070b0d"/><stop offset=".58" stop-color="#0a1118"/><stop offset="1" stop-color="#15120b"/></linearGradient><pattern id="grid" width="44" height="44" patternUnits="userSpaceOnUse"><path d="M44 0H0V44" fill="none" stroke="#19252d"/></pattern></defs><rect width="1600" height="335" rx="28" fill="url(#bg)"/><rect width="1600" height="335" rx="28" fill="url(#grid)" opacity=".25"/><rect x="1" y="1" width="1598" height="333" rx="27" fill="none" stroke="#31404d"/><text x="36" y="44" fill="#f2c037" font-family="monospace" font-size="15">› safe_write_pipeline</text><text x="260" y="44" fill="#8e9ba7" font-family="Arial" font-size="12">Defensive editing: no silent corruption, no optimistic writes.</text>
<g transform="translate(30 115)"><rect width="155" height="76" rx="13" fill="#0a151d" stroke="#f2c037" stroke-opacity=".65"/><text x="77.5" y="30" text-anchor="middle" fill="#f2c037" font-family="monospace" font-size="9">OPEN</text><text x="77.5" y="54" text-anchor="middle" fill="#ccd4da" font-family="Arial" font-size="10.5">source save</text></g><g transform="translate(215 115)"><rect width="155" height="76" rx="13" fill="#0a151d" stroke="#f2c037" stroke-opacity=".65"/><text x="77.5" y="30" text-anchor="middle" fill="#f2c037" font-family="monospace" font-size="9">DETECT</text><text x="77.5" y="54" text-anchor="middle" fill="#ccd4da" font-family="Arial" font-size="10.5">format</text></g><g transform="translate(400 115)"><rect width="155" height="76" rx="13" fill="#0a151d" stroke="#f2c037" stroke-opacity=".65"/><text x="77.5" y="30" text-anchor="middle" fill="#f2c037" font-family="monospace" font-size="9">PLAN</text><text x="77.5" y="54" text-anchor="middle" fill="#ccd4da" font-family="Arial" font-size="10.5">immutable edit</text></g><g transform="translate(585 115)"><rect width="155" height="76" rx="13" fill="#0a151d" stroke="#4cc9ff" stroke-opacity=".65"/><text x="77.5" y="30" text-anchor="middle" fill="#4cc9ff" font-family="monospace" font-size="9">RE-READ</text><text x="77.5" y="54" text-anchor="middle" fill="#ccd4da" font-family="Arial" font-size="10.5">fresh SHA-256</text></g><g transform="translate(770 115)"><rect width="155" height="76" rx="13" fill="#0a151d" stroke="#f2c037" stroke-opacity=".65"/><text x="77.5" y="30" text-anchor="middle" fill="#f2c037" font-family="monospace" font-size="9">BACKUP</text><text x="77.5" y="54" text-anchor="middle" fill="#ccd4da" font-family="Arial" font-size="10.5">original</text></g><g transform="translate(955 115)"><rect width="155" height="76" rx="13" fill="#0a151d" stroke="#ff914d" stroke-opacity=".65"/><text x="77.5" y="30" text-anchor="middle" fill="#ff914d" font-family="monospace" font-size="9">WRITE</text><text x="77.5" y="54" text-anchor="middle" fill="#ccd4da" font-family="Arial" font-size="10.5">atomic path</text></g><g transform="translate(1140 115)"><rect width="155" height="76" rx="13" fill="#0a151d" stroke="#4cc9ff" stroke-opacity=".65"/><text x="77.5" y="30" text-anchor="middle" fill="#4cc9ff" font-family="monospace" font-size="9">PARSE</text><text x="77.5" y="54" text-anchor="middle" fill="#ccd4da" font-family="Arial" font-size="10.5">written result</text></g><g transform="translate(1325 115)"><rect width="155" height="76" rx="13" fill="#0a151d" stroke="#66df91" stroke-opacity=".65"/><text x="77.5" y="30" text-anchor="middle" fill="#66df91" font-family="monospace" font-size="9">VERIFY</text><text x="77.5" y="54" text-anchor="middle" fill="#ccd4da" font-family="Arial" font-size="10.5">round-trip</text></g><path d="M185 153H215 M370 153H400 M555 153H585 M740 153H770 M925 153H955 M1110 153H1140 M1295 153H1325" stroke="#51616b" stroke-width="2"/><rect x="30" y="235" width="1450" height="54" rx="12" fill="#0b151c" stroke="#344653"/><text x="50" y="267" fill="#8e9ba7" font-family="monospace" font-size="9">Unknown / ambiguous structures remain opaque or read-only. Steam Cloud writes require explicit confirmation and are never silently retried.</text></svg>
<svg x="0" y="2939" width="1600" height="430" viewBox="0 0 1600 430" preserveAspectRatio="xMidYMid meet"><defs><linearGradient id="bg" x1="0" y1="0" x2="1" y2="1"><stop stop-color="#070b0d"/><stop offset=".58" stop-color="#0a1118"/><stop offset="1" stop-color="#15120b"/></linearGradient><pattern id="grid" width="44" height="44" patternUnits="userSpaceOnUse"><path d="M44 0H0V44" fill="none" stroke="#19252d"/></pattern></defs><rect width="1600" height="430" rx="28" fill="url(#bg)"/><rect width="1600" height="430" rx="28" fill="url(#grid)" opacity=".25"/><rect x="1" y="1" width="1598" height="428" rx="27" fill="none" stroke="#31404d"/><text x="36" y="44" fill="#f2c037" font-family="monospace" font-size="15">› architecture</text><text x="260" y="44" fill="#8e9ba7" font-family="Arial" font-size="12">One .NET core, multiple presentation and native boundaries.</text>
<g transform="translate(540 80)"><rect width="520" height="76" rx="13" fill="#0a151d" stroke="#f2c037" stroke-opacity=".65"/><text x="260" y="30" text-anchor="middle" fill="#f2c037" font-family="monospace" font-size="9">StalkerSaveEditor.Core</text><text x="260" y="54" text-anchor="middle" fill="#ccd4da" font-family="Arial" font-size="10.5">formats · editing · backups · catalogues · capabilities</text></g>
<g transform="translate(40 220)"><rect width="220" height="76" rx="13" fill="#0a151d" stroke="#f2c037" stroke-opacity=".65"/><text x="110" y="30" text-anchor="middle" fill="#f2c037" font-family="monospace" font-size="9">APP</text><text x="110" y="54" text-anchor="middle" fill="#ccd4da" font-family="Arial" font-size="10.5">shared Avalonia layer</text></g><g transform="translate(300 220)"><rect width="220" height="76" rx="13" fill="#0a151d" stroke="#4cc9ff" stroke-opacity=".65"/><text x="110" y="30" text-anchor="middle" fill="#4cc9ff" font-family="monospace" font-size="9">DESKTOP</text><text x="110" y="54" text-anchor="middle" fill="#ccd4da" font-family="Arial" font-size="10.5">native shell</text></g><g transform="translate(560 220)"><rect width="220" height="76" rx="13" fill="#0a151d" stroke="#4cc9ff" stroke-opacity=".65"/><text x="110" y="30" text-anchor="middle" fill="#4cc9ff" font-family="monospace" font-size="9">BROWSER</text><text x="110" y="54" text-anchor="middle" fill="#ccd4da" font-family="Arial" font-size="10.5">WebAssembly</text></g><g transform="translate(820 220)"><rect width="220" height="76" rx="13" fill="#0a151d" stroke="#66df91" stroke-opacity=".65"/><text x="110" y="30" text-anchor="middle" fill="#66df91" font-family="monospace" font-size="9">CLI</text><text x="110" y="54" text-anchor="middle" fill="#ccd4da" font-family="Arial" font-size="10.5">NativeAOT automation</text></g><g transform="translate(1080 220)"><rect width="220" height="76" rx="13" fill="#0a151d" stroke="#9bb6d8" stroke-opacity=".65"/><text x="110" y="30" text-anchor="middle" fill="#9bb6d8" font-family="monospace" font-size="9">STEAM</text><text x="110" y="54" text-anchor="middle" fill="#ccd4da" font-family="Arial" font-size="10.5">cloud / stats boundary</text></g><g transform="translate(1340 220)"><rect width="220" height="76" rx="13" fill="#0a151d" stroke="#f2c037" stroke-opacity=".65"/><text x="110" y="30" text-anchor="middle" fill="#f2c037" font-family="monospace" font-size="9">UPDATER</text><text x="110" y="54" text-anchor="middle" fill="#ccd4da" font-family="Arial" font-size="10.5">signed manifests</text></g>
<path d="M800 156V188 M800 188H150 M800 188H410 M800 188H670 M800 188H930 M800 188H1190 M800 188H1450 M150 188V220 M410 188V220 M670 188V220 M930 188V220 M1190 188V220 M1450 188V220" stroke="#51616b" stroke-width="2"/>
<rect x="40" y="334" width="1520" height="54" rx="12" fill="#0b151c" stroke="#344653"/><text x="60" y="367" fill="#cbd3d8" font-family="monospace" font-size="9">Companion + Game Fixes → shared core/patching layer → atomic game-file writes → ownership hashes / rollback</text></svg>
<svg x="0" y="3383" width="1600" height="220" viewBox="0 0 1600 220" preserveAspectRatio="xMidYMid meet"><defs><linearGradient id="bg" x1="0" y1="0" x2="1" y2="1"><stop stop-color="#070b0d"/><stop offset=".58" stop-color="#0a1118"/><stop offset="1" stop-color="#15120b"/></linearGradient><pattern id="grid" width="44" height="44" patternUnits="userSpaceOnUse"><path d="M44 0H0V44" fill="none" stroke="#19252d"/></pattern></defs><rect width="1600" height="220" rx="28" fill="url(#bg)"/><rect width="1600" height="220" rx="28" fill="url(#grid)" opacity=".25"/><rect x="1" y="1" width="1598" height="218" rx="27" fill="none" stroke="#31404d"/><text x="36" y="44" fill="#f2c037" font-family="monospace" font-size="15">› verification</text><text x="260" y="44" fill="#8e9ba7" font-family="Arial" font-size="12">Evidence before writable capability.</text>
<g transform="translate(35 78)"><rect width="275" height="105" rx="15" fill="#0b1219" stroke="#31404d"/><rect width="4" height="105" rx="2" fill="#f2c037"/><text x="18" y="25" fill="#f2c037" font-family="monospace" font-size="9">L1</text><text x="18" y="51" fill="#f4f5f7" font-family="Arial" font-size="15" font-weight="700">Round-trip</text><text x="18" y="76" fill="#8e9ba7" font-family="Arial" font-size="10.5">serializer/parser + checksum tests</text></g><g transform="translate(325 78)"><rect width="275" height="105" rx="15" fill="#0b1219" stroke="#31404d"/><rect width="4" height="105" rx="2" fill="#4cc9ff"/><text x="18" y="25" fill="#4cc9ff" font-family="monospace" font-size="9">L2</text><text x="18" y="51" fill="#f4f5f7" font-family="Arial" font-size="15" font-weight="700">Headless / unit</text><text x="18" y="76" fill="#8e9ba7" font-family="Arial" font-size="10.5">ViewModels · Lua · i18n</text></g><g transform="translate(615 78)"><rect width="275" height="105" rx="15" fill="#0b1219" stroke="#31404d"/><rect width="4" height="105" rx="2" fill="#f2c037"/><text x="18" y="25" fill="#f2c037" font-family="monospace" font-size="9">L3</text><text x="18" y="51" fill="#f4f5f7" font-family="Arial" font-size="15" font-weight="700">Package runtime</text><text x="18" y="76" fill="#8e9ba7" font-family="Arial" font-size="10.5">compiled/native bundle validation</text></g><g transform="translate(905 78)"><rect width="275" height="105" rx="15" fill="#0b1219" stroke="#31404d"/><rect width="4" height="105" rx="2" fill="#66df91"/><text x="18" y="25" fill="#66df91" font-family="monospace" font-size="9">L4</text><text x="18" y="51" fill="#f4f5f7" font-family="Arial" font-size="15" font-weight="700">Game accepted</text><text x="18" y="76" fill="#8e9ba7" font-family="Arial" font-size="10.5">retail build accepts output</text></g><g transform="translate(1195 78)"><rect width="370" height="105" rx="15" fill="#0b1219" stroke="#31404d"/><rect width="4" height="105" rx="2" fill="#66df91"/><text x="18" y="25" fill="#66df91" font-family="monospace" font-size="9">L5</text><text x="18" y="51" fill="#f4f5f7" font-family="Arial" font-size="15" font-weight="700">End-to-end retail</text><text x="18" y="76" fill="#8e9ba7" font-family="Arial" font-size="10.5">Steam Cloud + retail game verification</text></g></svg>
<rect x="0" y="3603" width="1600" height="62" fill="#070d12"/>
<line x1="32" y1="3603" x2="1568" y2="3603" stroke="#293740"/>
<text x="42" y="3641" fill="#657782" font-family="monospace" font-size="11">OPEN SOURCE · FULL PROJECT BELOW</text>
<text x="1558" y="3641" text-anchor="end" fill="#657782" font-family="monospace" font-size="11">Dmitriy-DE / S.T.A.L.K.E.R.-Save-Editor</text>
</svg>